# xmcd CD database file
#
# Track frame offsets:
#	150
#	714
#	17739
#	37052
#	55915
#	75378
#	92347
#	105997
#	116456
#	132084
#	145670
#	158927
#	174511
#
# Disc length: 2330 seconds
#
# Revision: 0
# Processed by: cddbd v1.5.2PL0 Copyright (c) Steve Scherf et al.
# Submitted via: CDex 1.70beta2
#
DISCID=9309180d
DTITLE=Dobro - Drinks and Strings
DYEAR=2005
DGENRE=Country
TTITLE0=Intro
TTITLE1=All I Want Is A Life
TTITLE2=Amy's Back In Austin
TTITLE3=Love Is The One You're With
TTITLE4=Peaceful Easy Feeling
TTITLE5=That's Not The Way
TTITLE6=Makin' Hay
TTITLE7=Time Between
TTITLE8=Take It Easy
TTITLE9=Love Is Easy
TTITLE10=Lookin' Past You
TTITLE11=All Night Long
TTITLE12=Final
EXTD=YEAR: 2005
EXTT0=
EXTT1=
EXTT2=
EXTT3=
EXTT4=
EXTT5=
EXTT6=
EXTT7=
EXTT8=
EXTT9=
EXTT10=
EXTT11=
EXTT12=
PLAYORDER=
